<svg id="Layer_1" data-name="Layer 1" xmlns="http://www.w3.org/2000/svg" viewBox="0 0 512 512"><defs><style>.cls-1{fill:#ff5f6e;}.cls-2{fill:#141f38;}.cls-3{fill:#5ecaef;}.cls-4{fill:#3eb38a;}.cls-5{fill:#d1e1e8;}</style></defs><title>chat-filled</title><path class="cls-1" d="M137.85,157.54A65.6,65.6,0,0,1,22.78,200.66a65.62,65.62,0,1,1,115.07-43.13Z"/><path class="cls-2" d="M72.21,229.74A72.31,72.31,0,1,1,126.56,205,72.13,72.13,0,0,1,72.21,229.74Zm0-131.28a59,59,0,1,0,59.08,59.08A59.14,59.14,0,0,0,72.21,98.46Z"/><circle class="cls-2" cx="72.21" cy="150.97" r="19.69"/><path class="cls-2" d="M121.63,200.66a65.51,65.51,0,0,1-98.86,0c8.73-17.72,27.57-30,49.43-30S112.9,182.94,121.63,200.66Z"/><path class="cls-3" d="M203.49,170.67v26.26a13.13,13.13,0,0,0,13.13,13.13H492.31a13.13,13.13,0,0,0,13.13-13.13V118.15A13.13,13.13,0,0,0,492.31,105H216.62a13.13,13.13,0,0,0-13.13,13.13v26.26l-13.13,13.13Z"/><path class="cls-2" d="M492.31,216.62H216.62a19.71,19.71,0,0,1-19.69-19.69V173.38l-15.85-15.85,15.85-15.85V118.15a19.71,19.71,0,0,1,19.69-19.69H492.31A19.71,19.71,0,0,1,512,118.15v78.77A19.71,19.71,0,0,1,492.31,216.62ZM199.64,157.54l10.41,10.41v29a6.57,6.57,0,0,0,6.56,6.56H492.31a6.57,6.57,0,0,0,6.56-6.56V118.15a6.57,6.57,0,0,0-6.56-6.56H216.62a6.57,6.57,0,0,0-6.56,6.56v29Z"/><path class="cls-2" d="M387.28,164.1H256A6.56,6.56,0,1,1,256,151H387.28a6.56,6.56,0,0,1,0,13.13Z"/><path class="cls-4" d="M505.44,354.46a65.64,65.64,0,1,1-65.64-65.64A65,65,0,0,1,505.44,354.46Z"/><path class="cls-2" d="M439.79,426.67a72.31,72.31,0,1,1,54.36-24.74A72.13,72.13,0,0,1,439.79,426.67Zm0-131.28a59,59,0,1,0,59.08,59.08A59.14,59.14,0,0,0,439.79,295.38Z"/><circle class="cls-2" cx="439.79" cy="347.9" r="19.69"/><path class="cls-2" d="M489.22,397.59a65.51,65.51,0,0,1-98.86,0c8.73-17.72,27.57-30,49.43-30S480.49,379.86,489.22,397.59Z"/><path class="cls-5" d="M308.51,367.59v26.26A13.13,13.13,0,0,1,295.38,407H19.69A13.13,13.13,0,0,1,6.56,393.85V315.08a13.13,13.13,0,0,1,13.13-13.13H295.38a13.13,13.13,0,0,1,13.13,13.13v26.26l13.13,13.13Z"/><path class="cls-2" d="M295.38,413.54H19.69A19.71,19.71,0,0,1,0,393.85V315.08a19.71,19.71,0,0,1,19.69-19.69H295.38a19.71,19.71,0,0,1,19.69,19.69v23.54l15.85,15.85-15.85,15.85v23.54A19.71,19.71,0,0,1,295.38,413.54Zm-275.69-105a6.57,6.57,0,0,0-6.56,6.56v78.77a6.57,6.57,0,0,0,6.56,6.56H295.38a6.57,6.57,0,0,0,6.56-6.56v-29l10.41-10.41-10.41-10.41v-29a6.57,6.57,0,0,0-6.56-6.56Z"/><path class="cls-2" d="M190.36,361H59.08a6.56,6.56,0,1,1,0-13.13H190.36a6.56,6.56,0,0,1,0,13.13Z"/></svg>