<svg id="Layer_1" data-name="Layer 1" xmlns="http://www.w3.org/2000/svg" viewBox="0 0 512 512"><defs><style>.cls-1{fill:#dde5e8;}.cls-2{fill:#9bbdc6;}.cls-3{fill:#afc3c9;}</style></defs><title>notepad-2-flat</title><path class="cls-1" d="M460.8,89.6V358.4L307.33,512H115.2a64,64,0,0,1-64-64V89.6a64,64,0,0,1,64-64H396.8A64,64,0,0,1,460.8,89.6Z"/><path class="cls-2" d="M460.8,358.4,307.33,512h-.13V422.4a64,64,0,0,1,64-64Z"/><path class="cls-3" d="M281.6,268.8A12.8,12.8,0,0,0,268.8,256H166.4a12.8,12.8,0,0,0-12.8,12.8h0a12.8,12.8,0,0,0,12.8,12.8H268.8a12.8,12.8,0,0,0,12.8-12.8Z"/><path class="cls-3" d="M358.4,217.6a12.8,12.8,0,0,0-12.8-12.8H166.4a12.8,12.8,0,0,0-12.8,12.8h0a12.8,12.8,0,0,0,12.8,12.8H345.6a12.8,12.8,0,0,0,12.8-12.8Z"/><path class="cls-3" d="M358,166.4a12.8,12.8,0,0,0-12.8-12.8H166.4a12.8,12.8,0,0,0-12.8,12.8h0a12.8,12.8,0,0,0,12.8,12.8H345.22A12.8,12.8,0,0,0,358,166.4Z"/><path class="cls-3" d="M128,76.8A12.8,12.8,0,0,1,115.2,64V12.8a12.8,12.8,0,0,1,25.6,0V64A12.8,12.8,0,0,1,128,76.8Z"/><path class="cls-3" d="M192,76.8A12.8,12.8,0,0,1,179.2,64V12.8a12.8,12.8,0,0,1,25.6,0V64A12.8,12.8,0,0,1,192,76.8Z"/><path class="cls-3" d="M256,76.8A12.8,12.8,0,0,1,243.2,64V12.8a12.8,12.8,0,1,1,25.6,0V64A12.8,12.8,0,0,1,256,76.8Z"/><path class="cls-3" d="M320,76.8A12.8,12.8,0,0,1,307.2,64V12.8a12.8,12.8,0,1,1,25.6,0V64A12.8,12.8,0,0,1,320,76.8Z"/><path class="cls-3" d="M384,76.8A12.8,12.8,0,0,1,371.2,64V12.8a12.8,12.8,0,1,1,25.6,0V64A12.8,12.8,0,0,1,384,76.8Z"/></svg>